<svg xmlns="http://www.w3.org/2000/svg" width="512" height="512" xml:space="preserve">
  <path fill="#FD8A00" d="M256 492c-63 0-122.3-24.5-166.9-69.1A234.5 234.5 0 0 1 20 256c0-63 24.5-122.3 69.1-166.9A234.5 234.5 0 0 1 256 20c63 0 122.3 24.5 166.9 69.1A234.5 234.5 0 0 1 492 256c0 63-24.5 122.3-69.1 166.9A234.5 234.5 0 0 1 256 492z"/>
  <path fill="#EFEFEF" d="M256 40a214.6 214.6 0 0 1 152.7 63.3A215.3 215.3 0 0 1 455 340a215.3 215.3 0 0 1-115 115 214.6 214.6 0 0 1-84 16.9 214.6 214.6 0 0 1-152.7-63.3A215.3 215.3 0 0 1 57 172 215.3 215.3 0 0 1 172 57C198.4 45.8 226.7 40 256 40m0-40a256 256 0 1 0 0 512 256 256 0 0 0 0-512z"/>
  <g>
    <path d="M180 349.8v-209h38.2v95.1h.6l79-95.1h47.4L258 244.4l94.4 105.4h-49l-84.6-94.3h-.6v94.3h-38.3z"/>
  </g>
</svg>
